name D:\school\WTK\thesis\model\3dpredictsim\Results\debug_tmt\Pog_s1_tmt_bCst_d00_k200_ig24_v3.mot
datacolumns 128
datarows 4
range 0.56925727 0.60341271
endheader
time	pelvis_tilt	pelvis_list	pelvis_rotation	pelvis_tx	pelvis_ty	pelvis_tz	hip_flexion_l	hip_adduction_l	hip_rotation_l	hip_flexion_r	hip_adduction_r	hip_rotation_r	knee_angle_l	knee_angle_r	ankle_angle_l	ankle_angle_r	subtalar_angle_l	subtalar_angle_r	tmt_angle_l	tmt_angle_r	mtp_angle_l	mtp_angle_r	lumbar_extension	lumbar_bending	lumbar_rotation	arm_flex_l	arm_add_l	arm_rot_l	arm_flex_r	arm_add_r	arm_rot_r	elbow_flex_l	elbow_flex_r	pro_sup_l	pro_sup_r	glut_med1_l/activation	glut_med2_l/activation	glut_med3_l/activation	glut_min1_l/activation	glut_min2_l/activation	glut_min3_l/activation	semimem_l/activation	semiten_l/activation	bifemlh_l/activation	bifemsh_l/activation	sar_l/activation	add_long_l/activation	add_brev_l/activation	add_mag1_l/activation	add_mag2_l/activation	add_mag3_l/activation	tfl_l/activation	pect_l/activation	grac_l/activation	glut_max1_l/activation	glut_max2_l/activation	glut_max3_l/activation	iliacus_l/activation	psoas_l/activation	quad_fem_l/activation	gem_l/activation	peri_l/activation	rect_fem_l/activation	vas_med_l/activation	vas_int_l/activation	vas_lat_l/activation	med_gas_l/activation	lat_gas_l/activation	soleus_l/activation	tib_post_l/activation	flex_dig_l/activation	flex_hal_l/activation	tib_ant_l/activation	per_brev_l/activation	per_long_l/activation	per_tert_l/activation	ext_dig_l/activation	ext_hal_l/activation	ercspn_l/activation	intobl_l/activation	extobl_l/activation	glut_med1_r/activation	glut_med2_r/activation	glut_med3_r/activation	glut_min1_r/activation	glut_min2_r/activation	glut_min3_r/activation	semimem_r/activation	semiten_r/activation	bifemlh_r/activation	bifemsh_r/activation	sar_r/activation	add_long_r/activation	add_brev_r/activation	add_mag1_r/activation	add_mag2_r/activation	add_mag3_r/activation	tfl_r/activation	pect_r/activation	grac_r/activation	glut_max1_r/activation	glut_max2_r/activation	glut_max3_r/activation	iliacus_r/activation	psoas_r/activation	quad_fem_r/activation	gem_r/activation	peri_r/activation	rect_fem_r/activation	vas_med_r/activation	vas_int_r/activation	vas_lat_r/activation	med_gas_r/activation	lat_gas_r/activation	soleus_r/activation	tib_post_r/activation	flex_dig_r/activation	flex_hal_r/activation	tib_ant_r/activation	per_brev_r/activation	per_long_r/activation	per_tert_r/activation	ext_dig_r/activation	ext_hal_r/activation	ercspn_r/activation	intobl_r/activation	extobl_r/activation	
          0.56925727	         -2.92921463	          2.30593180	         -6.56897462	          0.71157159	          0.85789104	          0.00291712	         31.52132694	          3.42621913	         -1.22772339	        -16.67122389	         -1.80567846	          9.43150048	        -14.18067765	        -12.74598925	          5.99379787	         -5.51909099	         -3.11450129	         13.70009777	          0.13572042	          7.02238632	         -0.06204384	         22.68288149	         -1.72944015	         -0.91772320	          2.13974185	        -10.18778282	        -13.61445865	          6.66046725	          6.03449150	        -13.47628701	         17.42426139	         17.01048291	         41.46617374	         86.51662706	         86.51662706	          0.05948761	          0.05948763	          0.05000010	          0.05948772	          0.05948767	          0.05948757	          0.14493688	          0.08565516	          0.17387905	          0.05000057	          0.05000013	          0.20073601	          0.36523677	          0.09970728	          0.23237386	          0.11295921	          0.05000018	          0.09223908	          0.14404778	          0.05000074	          0.05000093	          0.05001125	          0.06926472	          0.06805271	          0.56769279	          0.36005298	          0.14531329	          0.05000022	          0.12693911	          0.13123285	          0.11410702	          0.07802900	          0.07901025	          0.06918015	          0.07077557	          0.05000076	          0.05000242	          0.47510692	          0.32529293	          0.19563902	          0.23731625	          0.55214569	          0.32540280	          0.05112717	          0.09230044	          0.08926752	          0.27407650	          0.08917871	          0.05000003	          0.28031028	          0.18815798	          0.09524134	          0.05000143	          0.05000017	          0.05000014	          0.05646710	          0.08292423	          0.11302068	          0.18786240	          0.05000230	          0.05000149	          0.05000043	          0.26694785	          0.10455934	          0.05000108	          0.05000051	          0.05000034	          0.05000026	          0.34587195	          0.48626661	          0.05000007	          0.05000035	          0.05000042	          0.26051264	          0.05000916	          0.06012880	          0.12442196	          0.24080638	          0.32861465	          0.26269762	          0.18947732	          0.20912428	          0.26278651	          0.05000011	          0.09082875	          0.14072109	          0.05000071	          0.05000035	          0.05000040	          0.05000005	          0.05000013	          0.08420541	
          0.58064242	         -2.92247412	          2.40977306	         -6.80621278	          0.72930800	          0.85684503	          0.00272017	         30.74414818	          3.93494807	         -0.94830897	        -16.37290964	         -2.09667232	          9.14087510	        -14.55893996	        -14.87585898	          5.22632226	         -6.41474936	         -3.61356626	         14.82365306	         -0.01901167	          5.55973314	         -0.08562761	         24.01181857	         -1.50107275	         -1.15142828	          2.22672014	        -11.28489963	        -13.59453558	          6.52813923	          5.65052724	        -13.50922874	         17.62698888	         16.84220870	         42.61325306	         86.51662706	         86.51662706	          0.05000000	          0.05000003	          0.10715605	          0.05000009	          0.05000005	          0.05000004	          0.12182109	          0.07199418	          0.14614728	          0.05000030	          0.05948839	          0.16872092	          0.36730601	          0.43492640	          0.30039707	          0.11518834	          0.05000015	          0.08420926	          0.19693922	          0.06241461	          0.11834809	          0.15305630	          0.05821780	          0.05948770	          0.73198319	          0.30262852	          0.12213745	          0.05948770	          0.17497253	          0.20082324	          0.15883223	          0.07077481	          0.07077520	          0.06125720	          0.05948766	          0.07077607	          0.07077547	          0.54572898	          0.44306772	          0.25455739	          0.19946717	          0.55043492	          0.27350469	          0.05000000	          0.07757954	          0.07503034	          0.23036435	          0.07495573	          0.05948764	          0.23560392	          0.15814891	          0.08005147	          0.05000140	          0.05000014	          0.05000035	          0.05000002	          0.06969880	          0.21845857	          0.28276236	          0.27494923	          0.06938229	          0.08939401	          0.22437267	          0.08788358	          0.05000062	          0.05948814	          0.05948825	          0.05948825	          0.29070921	          0.44689031	          0.05948775	          0.05948796	          0.05500949	          0.21896375	          0.11785522	          0.11919335	          0.10457889	          0.20240042	          0.27620424	          0.22080024	          0.15925780	          0.17577135	          0.22087501	          0.08107506	          0.07634263	          0.11827769	          0.05000006	          0.13102094	          0.05000105	          0.08322504	          0.07194408	          0.07077559	
          0.59202756	         -2.90942632	          2.52068966	         -7.00651549	          0.74727997	          0.85556618	          0.00255399	         29.74942641	          4.31301658	         -0.64085263	        -15.99215167	         -2.36895303	          8.83973313	        -14.86899955	        -17.15510940	          4.70176158	         -7.35659365	         -4.12933718	         15.82084729	         -0.12770741	          4.06842072	         -0.17730993	         24.92300991	         -1.25606653	         -1.39578982	          2.30128559	        -12.35516290	        -13.59148674	          6.50012365	          5.17749965	        -13.54601895	         17.73494844	         16.63478512	         43.76054172	         86.51662706	         86.51662706	          0.33888375	          0.34617293	          0.35977704	          0.45992332	          0.37039972	          0.26655376	          0.11659054	          0.10882564	          0.13057963	          0.06224251	          0.05000096	          0.14181182	          0.30872477	          0.36556048	          0.25248726	          0.14482947	          0.05000020	          0.07077924	          0.16552970	          0.18960150	          0.16673761	          0.12864618	          0.05000026	          0.05000018	          0.61523995	          0.25436267	          0.25719981	          0.05000010	          0.14706660	          0.17383814	          0.13350048	          0.05948702	          0.05948736	          0.05148737	          0.05000005	          0.05948813	          0.05948765	          0.60400058	          0.44868038	          0.21395845	          0.54489559	          0.64109223	          0.34631130	          0.07186641	          0.09629369	          0.06306383	          0.34707921	          0.06300116	          0.05000004	          0.35685551	          0.13292615	          0.06728425	          0.05000324	          0.05000030	          0.05000014	          0.06282422	          0.08420482	          0.18361688	          0.23766495	          0.23109789	          0.05831670	          0.07513671	          0.18858792	          0.08428617	          0.05000072	          0.05000083	          0.05000070	          0.05000060	          0.24434442	          0.41185579	          0.05000013	          0.05000041	          0.05000006	          0.18404145	          0.09905862	          0.10018333	          0.08789971	          0.17011978	          0.23215272	          0.18558504	          0.13385796	          0.14773783	          0.18564794	          0.16918622	          0.16535326	          0.15628381	          0.20439893	          0.25886412	          0.05000039	          0.08914731	          0.06046979	          0.05948767	
          0.60341271	         -2.89243920	          2.62588181	         -7.16519452	          0.76519703	          0.85411805	          0.00235928	         28.69544152	          4.65722793	         -0.33760671	        -15.48233873	         -2.61233046	          8.54186256	        -15.12915797	        -19.64586909	          4.32751037	         -8.26662379	         -4.68677545	         16.67826677	         -0.05435702	          2.75893298	         -0.18646697	         24.92412976	         -1.02338429	         -1.63587891	          2.36271763	        -13.33809175	        -13.59621025	          6.57858681	          4.67259019	        -13.59446866	         17.78368428	         16.35968783	         44.86787305	         86.51662706	         86.51662706	          0.47473420	          0.50945613	          0.52525742	          0.38673504	          0.36042526	          0.46174138	          0.09799569	          0.11457614	          0.10975369	          0.07077525	          0.05000034	          0.11919442	          0.25948660	          0.30725770	          0.22300059	          0.17512227	          0.05000018	          0.05949113	          0.13912968	          0.29297207	          0.21963977	          0.16667369	          0.05000010	          0.05000008	          0.51711597	          0.21379468	          0.26727378	          0.05000002	          0.21662703	          0.25588635	          0.19228854	          0.05000001	          0.05000002	          0.05000000	          0.05000000	          0.05000050	          0.05000012	          0.71073448	          0.37712083	          0.17983446	          0.66005843	          0.64461194	          0.46912028	          0.08901232	          0.08093591	          0.05300586	          0.29172393	          0.05368516	          0.05948793	          0.29994103	          0.11172597	          0.05655474	          0.05839607	          0.05948665	          0.05948750	          0.05280454	          0.07077517	          0.16322452	          0.19976082	          0.25079350	          0.05001637	          0.11925475	          0.15851030	          0.07084375	          0.05948760	          0.05002131	          0.05001262	          0.05021499	          0.20537419	          0.34616943	          0.07023559	          0.05948805	          0.05106025	          0.15468887	          0.08325989	          0.08420522	          0.07388070	          0.14298756	          0.19512694	          0.15598627	          0.11250917	          0.12417541	          0.15603929	          0.21639598	          0.13898641	          0.13871211	          0.30360184	          0.26985971	          0.12515723	          0.11650750	          0.05082554	          0.05000006	
